<svg xmlns="http://www.w3.org/2000/svg" width="29.71" height="43.858" viewBox="0 0 29.71 43.858">
  <g id="fridge" transform="translate(-11 -1)">
    <path id="Path_13" data-name="Path 13" d="M38.588,1H13.122A2.125,2.125,0,0,0,11,3.122V39.907A2.119,2.119,0,0,0,12.415,41.9v2.252a.707.707,0,0,0,.707.707H38.588a.707.707,0,0,0,.707-.707V41.9a2.119,2.119,0,0,0,1.415-1.992V3.122A2.125,2.125,0,0,0,38.588,1ZM22.318,40.614V2.415h.707v38.2Zm-9.9-37.492a.709.709,0,0,1,.707-.707H20.9v38.2H13.122a.708.708,0,0,1-.707-.707ZM13.83,43.443V42.029H37.881v1.415ZM39.3,39.907a.708.708,0,0,1-.707.707H24.44V2.415H38.588a.709.709,0,0,1,.707.707Z" fill="#fff"/>
    <path id="Path_14" data-name="Path 14" d="M14.707,28.9h5.659a.708.708,0,0,0,.707-.707V19.707A.708.708,0,0,0,20.367,19H14.707a.708.708,0,0,0-.707.707V28.2A.708.708,0,0,0,14.707,28.9Zm.707-1.415V22.537h4.244v4.952Zm4.244-7.074v.707H15.415v-.707Z" transform="translate(-0.878 -5.267)" fill="#fff"/>
    <path id="Path_15" data-name="Path 15" d="M18,27h1.415v1.415H18Z" transform="translate(-2.048 -7.608)" fill="#fff"/>
    <path id="Path_16" data-name="Path 16" d="M35.707,9.244h7.074a.708.708,0,0,0,.707-.707V5.707A.708.708,0,0,0,42.781,5H35.707A.708.708,0,0,0,35,5.707v2.83A.708.708,0,0,0,35.707,9.244Zm.707-2.83h5.659V7.83H36.415Z" transform="translate(-7.023 -1.17)" fill="#fff"/>
    <path id="Path_17" data-name="Path 17" d="M32,26h1.415v8.489H32Z" transform="translate(-6.145 -7.315)" fill="#fff"/>
    <path id="Path_18" data-name="Path 18" d="M44.611,51h-9.9a.707.707,0,0,0-.707.707V53.83a.707.707,0,0,0,.707.707h9.9a.707.707,0,0,0,.707-.707V51.707A.707.707,0,0,0,44.611,51ZM43.9,53.122H35.415v-.707H43.9Z" transform="translate(-6.73 -14.63)" fill="#fff"/>
    <path id="Path_19" data-name="Path 19" d="M35.207,42.574l1,1,1.915-1.915h1.122v1.122L37.329,44.7l1,1,.915-.915V45.9h1.415V44.782l.915.915,1-1-1.915-1.915V41.659h1.122L43.7,43.574l1-1-.915-.915H44.9V40.244H43.782l.915-.915-1-1-1.915,1.915H40.659V39.122l1.915-1.915-1-1-.915.915V36H39.244v1.122l-.915-.915-1,1,1.915,1.915v1.122H38.122l-1.915-1.915-1,1,.915.915H35v1.415h1.122Z" transform="translate(-7.023 -10.241)" fill="#fff"/>
  </g>
</svg>
