<svg xmlns="http://www.w3.org/2000/svg" width="38" height="27.832" viewBox="0 0 38 27.832">
  <g id="microwave" transform="translate(0 -68.5)">
    <path id="Path_20" data-name="Path 20" d="M36.33,68.5H9.08a.557.557,0,0,0,0,1.113H26.719v3.755a.557.557,0,0,0,1.113,0V69.613h8.5a.557.557,0,0,1,.557.557V92.436a.557.557,0,0,1-.557.557h-8.5v-17.2a.557.557,0,0,0-1.113,0v17.2H1.67a.557.557,0,0,1-.557-.557V70.17a.557.557,0,0,1,.557-.557H6.654a.557.557,0,0,0,0-1.113H1.67A1.672,1.672,0,0,0,0,70.17V92.436a1.672,1.672,0,0,0,1.67,1.67H2.728v.186a2.043,2.043,0,0,0,2.041,2.041H7a2.043,2.043,0,0,0,2.041-2.041v-.186H28.964v.186A2.043,2.043,0,0,0,31,96.332h2.227a2.043,2.043,0,0,0,2.041-2.041v-.186H36.33A1.672,1.672,0,0,0,38,92.436V70.17A1.672,1.672,0,0,0,36.33,68.5ZM7.923,94.291A.929.929,0,0,1,7,95.219H4.769a.929.929,0,0,1-.928-.928v-.186H7.923Zm26.236,0a.929.929,0,0,1-.928.928H31a.929.929,0,0,1-.928-.928v-.186h4.082Z" fill="#fff"/>
    <path id="Path_21" data-name="Path 21" d="M40,109.057v18.555a.557.557,0,0,0,.557.557H61.338a.557.557,0,0,0,.557-.557V109.057a.557.557,0,0,0-.557-.557H40.557A.557.557,0,0,0,40,109.057Zm1.113,18v-2.313H60.781v2.313Zm19.668-17.441v14.015H56.29a2.784,2.784,0,0,0,.516-1.212l.433-2.592a.557.557,0,0,0-.549-.648H52.16a.557.557,0,0,0,0,1.113h3.873l-.325,1.944a1.664,1.664,0,0,1-1.647,1.4H47.833a1.665,1.665,0,0,1-1.647-1.4l-.324-1.944h3.873a.557.557,0,1,0,0-1.113H45.2a.557.557,0,0,0-.549.648l.433,2.592a2.784,2.784,0,0,0,.516,1.213H41.113V109.613Z" transform="translate(-37.031 -37.031)" fill="#fff"/>
    <path id="Path_22" data-name="Path 22" d="M407.768,116.293a.557.557,0,0,0,.557-.557v-6.68a.557.557,0,0,0-.557-.557h-3.711a.557.557,0,0,0-.557.557v6.68a.557.557,0,0,0,.557.557Zm-3.154-6.68h2.6v5.566h-2.6Z" transform="translate(-373.553 -37.031)" fill="#fff"/>
    <path id="Path_23" data-name="Path 23" d="M405.912,238.324a2.412,2.412,0,1,0-2.412-2.412A2.415,2.415,0,0,0,405.912,238.324Zm0-3.711a1.3,1.3,0,1,1-1.3,1.3A1.3,1.3,0,0,1,405.912,234.613Z" transform="translate(-373.553 -152.754)" fill="#fff"/>
    <path id="Path_24" data-name="Path 24" d="M404.057,323.453h3.711a.557.557,0,0,0,0-1.113h-3.711a.557.557,0,0,0,0,1.113Z" transform="translate(-373.553 -235)" fill="#fff"/>
    <path id="Path_25" data-name="Path 25" d="M404.057,359.613h3.711a.557.557,0,0,0,0-1.113h-3.711a.557.557,0,0,0,0,1.113Z" transform="translate(-373.553 -268.477)" fill="#fff"/>
    <path id="Path_26" data-name="Path 26" d="M194.865,153.551c.715.619.672.807.022,1.381a.557.557,0,0,0,.736.835,1.8,1.8,0,0,0-.03-3.057c-.726-.628-.652-.816.022-1.389a.557.557,0,0,0-.721-.848A1.791,1.791,0,0,0,194.865,153.551Z" transform="translate(-179.605 -75.765)" fill="#fff"/>
    <path id="Path_27" data-name="Path 27" d="M148.764,153.551c.715.619.672.807.022,1.381a.557.557,0,0,0,.736.835,1.8,1.8,0,0,0-.03-3.057c-.726-.629-.652-.816.022-1.389a.557.557,0,0,0-.721-.848A1.791,1.791,0,0,0,148.764,153.551Z" transform="translate(-136.926 -75.765)" fill="#fff"/>
  </g>
</svg>
