<svg xmlns="http://www.w3.org/2000/svg" width="38" height="38" viewBox="0 0 38 38">
  <g id="outline" transform="translate(-16 -16)">
    <path id="Path_36" data-name="Path 36" d="M72.633,168.067H100.5a.633.633,0,0,0,.633-.633v-22.8A.633.633,0,0,0,100.5,144H72.633a.633.633,0,0,0-.633.633v22.8A.633.633,0,0,0,72.633,168.067Zm3.8-22.8H96.7a.633.633,0,0,1,0,1.267H76.433a.633.633,0,1,1,0-1.267Zm-3.167,0h1.376a1.9,1.9,0,0,0,1.791,2.533H96.7a1.9,1.9,0,0,0,1.791-2.533h1.376v19H95.433v-2.642a1.9,1.9,0,0,0-.633-3.691h-.961A5.688,5.688,0,0,0,89.1,155.4H84.033a5.723,5.723,0,0,0-4.74,2.533h-.96a1.9,1.9,0,0,0-.633,3.691v2.642H73.267Zm5.067,15.2a.633.633,0,1,1,0-1.267H94.8a.633.633,0,0,1,0,1.267Zm15.833,1.267v2.533h-15.2v-2.533Zm-13.234-3.8a4.449,4.449,0,0,1,3.1-1.267H89.1a4.42,4.42,0,0,1,3.1,1.267Zm-7.666,7.6h26.6V166.8h-26.6Z" transform="translate(-51.567 -117.867)" fill="#fff"/>
    <path id="Path_37" data-name="Path 37" d="M51.783,16H18.217A2.219,2.219,0,0,0,16,18.217V51.783A2.219,2.219,0,0,0,18.217,54H51.783A2.219,2.219,0,0,0,54,51.783V18.217A2.219,2.219,0,0,0,51.783,16Zm.95,35.783a.951.951,0,0,1-.95.95H18.217a.951.951,0,0,1-.95-.95V24.867H52.733Zm0-28.183H17.267V18.217a.951.951,0,0,1,.95-.95H51.783a.951.951,0,0,1,.95.95Z" fill="#fff"/>
    <path id="Path_38" data-name="Path 38" d="M233.9,48a1.9,1.9,0,1,0,1.9,1.9A1.9,1.9,0,0,0,233.9,48Zm0,2.533a.633.633,0,1,1,.633-.633A.633.633,0,0,1,233.9,50.533Z" transform="translate(-198.9 -29.467)" fill="#fff"/>
    <path id="Path_39" data-name="Path 39" d="M153.9,48a1.9,1.9,0,1,0,1.9,1.9A1.9,1.9,0,0,0,153.9,48Zm0,2.533a.633.633,0,1,1,.633-.633A.633.633,0,0,1,153.9,50.533Z" transform="translate(-125.233 -29.467)" fill="#fff"/>
    <path id="Path_40" data-name="Path 40" d="M313.9,48a1.9,1.9,0,1,0,1.9,1.9A1.9,1.9,0,0,0,313.9,48Zm0,2.533a.633.633,0,1,1,.633-.633A.633.633,0,0,1,313.9,50.533Z" transform="translate(-272.567 -29.467)" fill="#fff"/>
    <path id="Path_41" data-name="Path 41" d="M244.633,209.978a.633.633,0,1,0,1.267,0,2.267,2.267,0,0,0-.415-1.341,1.119,1.119,0,0,1,0-1.33,2.267,2.267,0,0,0,.415-1.341.633.633,0,1,0-1.267,0,1.025,1.025,0,0,1-.219.665,2.376,2.376,0,0,0,0,2.682A1.026,1.026,0,0,1,244.633,209.978Z" transform="translate(-209.95 -174.345)" fill="#fff"/>
    <path id="Path_42" data-name="Path 42" d="M288.633,209.978a.633.633,0,1,0,1.267,0,2.267,2.267,0,0,0-.415-1.341,1.119,1.119,0,0,1,0-1.33,2.267,2.267,0,0,0,.415-1.341.633.633,0,1,0-1.267,0,1.025,1.025,0,0,1-.219.665,2.376,2.376,0,0,0,0,2.682A1.026,1.026,0,0,1,288.633,209.978Z" transform="translate(-250.467 -174.345)" fill="#fff"/>
    <path id="Path_43" data-name="Path 43" d="M200.633,209.978a.633.633,0,1,0,1.267,0,2.267,2.267,0,0,0-.415-1.341,1.119,1.119,0,0,1,0-1.33,2.267,2.267,0,0,0,.415-1.341.633.633,0,1,0-1.267,0,1.025,1.025,0,0,1-.219.665,2.376,2.376,0,0,0,0,2.682A1.026,1.026,0,0,1,200.633,209.978Z" transform="translate(-169.433 -174.345)" fill="#fff"/>
  </g>
</svg>
