<svg xmlns="http://www.w3.org/2000/svg" width="37.951" height="37.951" viewBox="0 0 37.951 37.951">
  <g id="outline" transform="translate(-16 -16)">
    <path id="Path_4" data-name="Path 4" d="M53.951,50.472V19.479A3.483,3.483,0,0,0,50.472,16H19.479A3.483,3.483,0,0,0,16,19.479V50.472a3.483,3.483,0,0,0,3.479,3.479H50.472a3.483,3.483,0,0,0,3.479-3.479ZM17.265,19.479a2.216,2.216,0,0,1,2.214-2.214H50.472a2.216,2.216,0,0,1,2.214,2.214v2.846H17.265Zm0,30.994V23.59H52.686V50.472a2.216,2.216,0,0,1-2.214,2.214H19.479A2.216,2.216,0,0,1,17.265,50.472Z" transform="translate(0 0)" fill="#fff"/>
    <path id="Path_5" data-name="Path 5" d="M80.891,153.933v-25.3a.633.633,0,0,0-.633-.633H48.633a.633.633,0,0,0-.633.633v25.3a.633.633,0,0,0,.633.633H80.259A.633.633,0,0,0,80.891,153.933ZM49.265,139.385H79.626v1.265H49.265Zm13.283-2.53a.633.633,0,0,1,0,1.265h-.633v-1.265Zm-1.9,1.265H59.277a1.9,1.9,0,0,0-1.789-2.53h-.524a1.9,1.9,0,0,1,3.686.633Zm-3.8-1.265h.633a.633.633,0,0,1,0,1.265h-.633ZM55.59,138.12H51.8v-1.9a1.9,1.9,0,1,1,3.8,0Zm11.452,0,.506-5.06H70.2l.506,5.06Zm6.325,0,.506-5.06h2.65l.506,5.06Zm6.259-8.855v8.855H78.3l-.576-5.756a.633.633,0,0,0-.629-.569H73.3a.632.632,0,0,0-.629.569L72.1,138.12h-.12l-.576-5.756a.633.633,0,0,0-.629-.569h-3.8a.633.633,0,0,0-.629.569l-.576,5.756H64.337a1.9,1.9,0,0,0-1.789-2.53h-.7a3.161,3.161,0,0,0-5.629-1.263,3.161,3.161,0,0,0-5.693,1.9v1.9H49.265v-8.855ZM71.4,148.241a1.267,1.267,0,0,0-1.265,1.265v.461a1.264,1.264,0,1,1,1.726-1.726Zm.461,1.265a1.274,1.274,0,0,1-.461.461v-.461Zm-.461,3.749v-1.932a2.539,2.539,0,0,0,1.817-1.817h1.932A4.437,4.437,0,0,1,71.4,153.255Zm1.817-5.014a2.53,2.53,0,1,0-3.083,3.083v1.932a4.428,4.428,0,1,1,5.014-5.014Zm-8.143.633a5.684,5.684,0,0,0,2.113,4.422c-.072,0-.143.006-.216.006a4.428,4.428,0,0,1,0-8.855q.108,0,.216.005a5.684,5.684,0,0,0-2.114,4.423Zm-3.8,0A5.683,5.683,0,0,0,63.4,153.3c-.072,0-.143.006-.215.006a4.428,4.428,0,0,1,0-8.855q.108,0,.216.005A5.684,5.684,0,0,0,61.283,148.873Zm-3.8,0A5.684,5.684,0,0,0,59.6,153.3q-.108.005-.216.005a4.428,4.428,0,0,1,0-8.855c.072,0,.144,0,.216.006A5.684,5.684,0,0,0,57.488,148.873Zm-3.8,0a5.684,5.684,0,0,0,2.093,4.406,4.428,4.428,0,0,1,0-8.812A5.684,5.684,0,0,0,53.693,148.873ZM74.343,153.3a5.689,5.689,0,0,0,2.084-3.8H77.1v3.8Zm4.018,0v-3.8a1.267,1.267,0,0,0-1.265-1.265h-.668a5.69,5.69,0,0,0-7.552-4.735,5.694,5.694,0,0,0-3.8,0,5.694,5.694,0,0,0-3.8,0,5.683,5.683,0,0,0-3.477-.1,5.691,5.691,0,0,0-5.157,9.9H49.265V141.915H79.626V153.3Z" transform="translate(-29.47 -103.145)" fill="#fff"/>
    <path id="Path_6" data-name="Path 6" d="M73.488,40H64.633a.633.633,0,0,0-.633.633v2.53a.633.633,0,0,0,.633.633h8.855a.633.633,0,0,0,.633-.633v-2.53A.633.633,0,0,0,73.488,40Zm-.633,2.53h-7.59V41.265h7.59Z" transform="translate(-44.205 -22.102)" fill="#fff"/>
    <path id="Path_7" data-name="Path 7" d="M273.9,40a1.9,1.9,0,1,0,1.9,1.9A1.9,1.9,0,0,0,273.9,40Zm0,2.53a.633.633,0,1,1,.633-.633A.633.633,0,0,1,273.9,42.53Z" transform="translate(-235.759 -22.102)" fill="#fff"/>
    <path id="Path_8" data-name="Path 8" d="M209.9,40a1.9,1.9,0,1,0,1.9,1.9A1.9,1.9,0,0,0,209.9,40Zm0,2.53a.633.633,0,1,1,.633-.633A.633.633,0,0,1,209.9,42.53Z" transform="translate(-176.82 -22.102)" fill="#fff"/>
    <path id="Path_9" data-name="Path 9" d="M401.9,40a1.9,1.9,0,1,0,1.9,1.9A1.9,1.9,0,0,0,401.9,40Zm0,2.53a.633.633,0,1,1,.633-.633A.633.633,0,0,1,401.9,42.53Z" transform="translate(-353.639 -22.102)" fill="#fff"/>
    <path id="Path_10" data-name="Path 10" d="M337.9,40a1.9,1.9,0,1,0,1.9,1.9A1.9,1.9,0,0,0,337.9,40Zm0,2.53a.633.633,0,1,1,.633-.633A.633.633,0,0,1,337.9,42.53Z" transform="translate(-294.699 -22.102)" fill="#fff"/>
    <path id="Path_11" data-name="Path 11" d="M96.633,161.265h.633a.633.633,0,1,0,0-1.265h-.633a.633.633,0,1,0,0,1.265Z" transform="translate(-73.675 -132.615)" fill="#fff"/>
    <path id="Path_12" data-name="Path 12" d="M136.633,161.265h2.53a.633.633,0,1,0,0-1.265h-2.53a.633.633,0,1,0,0,1.265Z" transform="translate(-110.512 -132.615)" fill="#fff"/>
  </g>
</svg>
