<svg id="Page-1" xmlns="http://www.w3.org/2000/svg" width="38" height="38" viewBox="0 0 38 38">
  <g id="_029---Dryer" data-name="029---Dryer">
    <path id="Shape" d="M34.833,0H3.167A3.17,3.17,0,0,0,0,3.167V34.833A3.17,3.17,0,0,0,3.167,38H34.833A3.17,3.17,0,0,0,38,34.833V3.167A3.17,3.17,0,0,0,34.833,0Zm1.9,3.167v5.7H16.467v-7.6H34.833A1.9,1.9,0,0,1,36.733,3.167ZM3.167,1.267H15.2v7.6H1.267v-5.7A1.9,1.9,0,0,1,3.167,1.267ZM34.833,36.733H3.167a1.9,1.9,0,0,1-1.9-1.9v-24.7H36.733v24.7A1.9,1.9,0,0,1,34.833,36.733Z" fill="#fff"/>
    <path id="Shape-2" data-name="Shape" d="M50.533,9.067A2.533,2.533,0,1,0,48,6.533,2.533,2.533,0,0,0,50.533,9.067Zm0-3.8a1.267,1.267,0,1,1-1.267,1.267A1.267,1.267,0,0,1,50.533,5.267Z" transform="translate(-17.6 -1.467)" fill="#fff"/>
    <path id="Shape-3" data-name="Shape" d="M40.533,9.067A2.533,2.533,0,1,0,38,6.533,2.533,2.533,0,0,0,40.533,9.067Zm0-3.8a1.267,1.267,0,1,1-1.267,1.267A1.267,1.267,0,0,1,40.533,5.267Z" transform="translate(-13.933 -1.467)" fill="#fff"/>
    <path id="Shape-4" data-name="Shape" d="M6.533,9.067A2.533,2.533,0,1,0,4,6.533,2.533,2.533,0,0,0,6.533,9.067Zm0-3.8A1.267,1.267,0,1,1,5.267,6.533,1.267,1.267,0,0,1,6.533,5.267Z" transform="translate(-1.467 -1.467)" fill="#fff"/>
    <circle id="Oval" cx="1" cy="1" r="1" transform="translate(18 4)" fill="#fff"/>
    <ellipse id="Oval-2" data-name="Oval" cx="0.5" cy="1" rx="0.5" ry="1" transform="translate(21 4)" fill="#fff"/>
    <ellipse id="Oval-3" data-name="Oval" cx="0.5" cy="1" rx="0.5" ry="1" transform="translate(10 4)" fill="#fff"/>
    <ellipse id="Oval-4" data-name="Oval" cx="0.5" cy="1" rx="0.5" ry="1" transform="translate(12 4)" fill="#fff"/>
    <path id="Shape-5" data-name="Shape" d="M23.033,18A12.033,12.033,0,1,0,35.067,30.033,12.033,12.033,0,0,0,23.033,18Zm0,22.8A10.767,10.767,0,1,1,33.8,30.033,10.767,10.767,0,0,1,23.033,40.8Z" transform="translate(-4.033 -6.6)" fill="#fff"/>
    <path id="Shape-6" data-name="Shape" d="M24.5,22A9.5,9.5,0,1,0,34,31.5,9.5,9.5,0,0,0,24.5,22Zm0,17.733A8.233,8.233,0,1,1,32.733,31.5,8.233,8.233,0,0,1,24.5,39.733Z" transform="translate(-5.5 -8.067)" fill="#fff"/>
    <path id="Shape-7" data-name="Shape" d="M4.633,18A.633.633,0,0,0,4,18.633V19.9a.633.633,0,1,0,1.267,0V18.633A.633.633,0,0,0,4.633,18Z" transform="translate(-1.467 -6.6)" fill="#fff"/>
    <path id="Shape-8" data-name="Shape" d="M4.633,24A.633.633,0,0,0,4,24.633v13.3a.633.633,0,0,0,1.267,0v-13.3A.633.633,0,0,0,4.633,24Z" transform="translate(-1.467 -8.8)" fill="#fff"/>
    <path id="Shape-9" data-name="Shape" d="M29.187,33.139a2.15,2.15,0,0,1-.925-1.971,2.153,2.153,0,0,1,.916-1.963.634.634,0,0,0-.566-1.134A3.367,3.367,0,0,0,27,31.168a3.367,3.367,0,0,0,1.609,3.1,2.15,2.15,0,0,1,.925,1.971,2.153,2.153,0,0,1-.923,1.97.633.633,0,0,0,.57,1.13,3.367,3.367,0,0,0,1.62-3.1,3.367,3.367,0,0,0-1.609-3.1Z" transform="translate(-9.896 -10.268)" fill="#fff"/>
    <path id="Shape-10" data-name="Shape" d="M35.187,33.139a2.15,2.15,0,0,1-.925-1.971,2.153,2.153,0,0,1,.916-1.963.634.634,0,1,0-.566-1.134A3.367,3.367,0,0,0,33,31.168a3.367,3.367,0,0,0,1.609,3.1,2.15,2.15,0,0,1,.925,1.971,2.153,2.153,0,0,1-.923,1.97.633.633,0,0,0,.573,1.13,3.367,3.367,0,0,0,1.617-3.1A3.367,3.367,0,0,0,35.187,33.139Z" transform="translate(-12.096 -10.268)" fill="#fff"/>
    <path id="Shape-11" data-name="Shape" d="M23.187,33.139a2.15,2.15,0,0,1-.925-1.971,2.153,2.153,0,0,1,.916-1.963.634.634,0,0,0-.566-1.134A3.367,3.367,0,0,0,21,31.168a3.367,3.367,0,0,0,1.609,3.1,2.15,2.15,0,0,1,.925,1.971,2.153,2.153,0,0,1-.923,1.97.633.633,0,0,0,.57,1.13,3.367,3.367,0,0,0,1.62-3.1,3.367,3.367,0,0,0-1.609-3.1Z" transform="translate(-7.696 -10.268)" fill="#fff"/>
  </g>
</svg>
