<svg id="Page-1" xmlns="http://www.w3.org/2000/svg" width="37.951" height="37.951" viewBox="0 0 37.951 37.951">
  <g id="_002---Business-Insurance" data-name="002---Business-Insurance">
    <path id="Shape" d="M47.539,30.141l-6.325-2.732a.633.633,0,0,0-.5,0l-6.325,2.732a.633.633,0,0,0-.38.581v7.484a3.908,3.908,0,0,0,1.65,3.171L40.6,44.9a.632.632,0,0,0,.734,0l4.941-3.517a3.909,3.909,0,0,0,1.645-3.171V30.722A.633.633,0,0,0,47.539,30.141Zm-.886,8.065a2.643,2.643,0,0,1-1.119,2.145L40.961,43.6l-4.574-3.256a2.641,2.641,0,0,1-1.119-2.141V31.138l5.693-2.459,5.693,2.459Z" transform="translate(-12.497 -10.053)" fill="#fff"/>
    <path id="Shape-2" data-name="Shape" d="M39.012,39.554a.633.633,0,0,0-.759,1.012l2.53,1.9a.633.633,0,0,0,.874-.111l5.06-6.325a.633.633,0,0,0-.988-.791l-4.677,5.847Z" transform="translate(-13.964 -12.862)" fill="#fff"/>
    <path id="Shape-3" data-name="Shape" d="M34.789,5.06H27.161A5.7,5.7,0,0,0,21.506,0h-5.06A5.7,5.7,0,0,0,10.79,5.06H3.163A3.166,3.166,0,0,0,0,8.223V32.259a3.168,3.168,0,0,0,2.53,3.1v.7a1.9,1.9,0,0,0,1.9,1.9h3.8a1.9,1.9,0,0,0,1.9-1.9v-.633H24.548l3.257,2.318a1.132,1.132,0,0,0,1.317,0l6.115-4.351a6.461,6.461,0,0,0,2.335-3.081.633.633,0,0,0,.38-.578V8.223A3.166,3.166,0,0,0,34.789,5.06ZM33.1,16.5l-1.857-.8-.886-.38V10.753a1.9,1.9,0,0,0-1.9-1.9h-2.53a1.9,1.9,0,0,0-1.9,1.9V16.4l-.094.041H15.181v-.633a1.9,1.9,0,0,0-1.265-1.781V10.753a1.9,1.9,0,0,0-1.9-1.9H9.488a1.9,1.9,0,0,0-1.9,1.9v3.279a1.9,1.9,0,0,0-1.265,1.781v.633H1.265v-5.06H2.53A1.265,1.265,0,0,0,3.8,10.12V8.855H5.06A1.265,1.265,0,0,0,6.325,7.59V6.325h25.3V7.59a1.265,1.265,0,0,0,1.265,1.265h1.265V10.12a1.265,1.265,0,0,0,1.265,1.265h1.265v6.66Zm-4.389-1.9a.632.632,0,0,0-.5,0L25.3,15.858V10.753a.633.633,0,0,1,.633-.633h2.53a.633.633,0,0,1,.633.633v4.012ZM8.855,20.241h3.8v4.166l-1.9,1.9-1.9-1.9Zm4.428-1.265H8.223a.633.633,0,0,1-.633-.633v-2.53a.633.633,0,0,1,.633-.633h5.06a.633.633,0,0,1,.633.633v2.53A.633.633,0,0,1,13.283,18.976Zm-.633-5.06h-3.8V10.753a.633.633,0,0,1,.633-.633h2.53a.633.633,0,0,1,.633.633ZM14.664,5.06A1.9,1.9,0,0,1,16.446,3.8h5.06A1.9,1.9,0,0,1,23.287,5.06ZM36.686,8.223v1.9H35.421V8.855A1.265,1.265,0,0,0,34.156,7.59H32.891V6.325h1.9A1.9,1.9,0,0,1,36.686,8.223ZM16.446,1.265h5.06a4.435,4.435,0,0,1,4.383,3.8H24.605a3.168,3.168,0,0,0-3.1-2.53h-5.06a3.168,3.168,0,0,0-3.1,2.53H12.062A4.435,4.435,0,0,1,16.446,1.265ZM3.163,6.325h1.9V7.59H3.8A1.265,1.265,0,0,0,2.53,8.855V10.12H1.265v-1.9A1.9,1.9,0,0,1,3.163,6.325Zm-1.9,25.933v-1.9H2.53v1.265A1.265,1.265,0,0,0,3.8,32.891H5.06v1.265h-1.9A1.9,1.9,0,0,1,1.265,32.259Zm7.59,3.8a.633.633,0,0,1-.633.633h-3.8a.633.633,0,0,1-.633-.633v-.633h5.06Zm.633-1.9H6.325V32.891A1.265,1.265,0,0,0,5.06,31.626H3.8V30.361A1.265,1.265,0,0,0,2.53,29.1H1.265V17.711h5.06v.633A1.9,1.9,0,0,0,7.59,20.124v4.544a.633.633,0,0,0,.185.447l2.53,2.53a.633.633,0,0,0,.894,0l2.53-2.53a.632.632,0,0,0,.185-.447V20.124a1.9,1.9,0,0,0,1.265-1.781v-.633h5.834l-1.659.716a.633.633,0,0,0-.38.581v9.146a6.443,6.443,0,0,0,2.714,5.234l1.081.769Zm25.016-1.8-6.041,4.3-6.041-4.3a5.178,5.178,0,0,1-2.182-4.2V19.425l4.653-2.011.04-.017,3.529-1.527,1.005.435.028.012,1.245.539,1.859.8,4.085,1.764v8.729a5.06,5.06,0,0,1-.2,1.4A5.19,5.19,0,0,1,34.5,32.357Z" fill="#fff"/>
    <ellipse id="Oval" cx="1" cy="0.5" rx="1" ry="0.5" transform="translate(9.976 21.976)" fill="#fff"/>
    <path id="Shape-4" data-name="Shape" d="M17.163,26h-2.53a.633.633,0,0,0,0,1.265h2.53a.633.633,0,1,0,0-1.265Z" transform="translate(-5.145 -9.554)" fill="#fff"/>
  </g>
</svg>
