<svg xmlns="http://www.w3.org/2000/svg" width="38" height="37.811" viewBox="0 0 38 37.811">
  <g id="Rating" transform="translate(-2 -2.299)">
    <path id="Path_28" data-name="Path 28" d="M30.6,45.545v-.7a3.152,3.152,0,0,0,1.267-2.515V41.7a.633.633,0,0,0,.633-.633V39.8a3.8,3.8,0,0,0-7.6,0v1.267a.633.633,0,0,0,.633.633v.633A3.152,3.152,0,0,0,26.8,44.85v.7A4.44,4.44,0,0,0,23,49.933v1.9a.633.633,0,0,0,.633.633H33.767a.633.633,0,0,0,.633-.633v-1.9a4.44,4.44,0,0,0-3.8-4.388ZM26.167,39.8a2.533,2.533,0,0,1,5.067,0v.633h-.108a.633.633,0,0,1-.448-.186l-.9-.9a.633.633,0,0,0-.9,0l-.525.525a1.913,1.913,0,0,1-1.343.556h-.851Zm.851,1.9a3.145,3.145,0,0,0,2.239-.927l.077-.077.448.448a1.875,1.875,0,0,0,.819.474v.716a1.9,1.9,0,1,1-3.8,0V41.7ZM28.7,45.5a3.167,3.167,0,0,0,.633-.063v.435l-.633.633-.633-.633v-.435A3.167,3.167,0,0,0,28.7,45.5Zm-4.433,4.433A3.161,3.161,0,0,1,27.2,46.791l.871.871V51.2h-3.8ZM33.133,51.2h-3.8V47.662l.871-.871a3.161,3.161,0,0,1,2.929,3.143Z" transform="translate(-7.7 -12.357)" fill="#fff"/>
    <path id="Path_29" data-name="Path 29" d="M51.6,45.545v-.7a3.152,3.152,0,0,0,1.267-2.515V41.7a.633.633,0,0,0,.633-.633V39.8a3.8,3.8,0,1,0-7.6,0v1.267a.633.633,0,0,0,.633.633v.633A3.152,3.152,0,0,0,47.8,44.85v.7A4.44,4.44,0,0,0,44,49.933v1.9a.633.633,0,0,0,.633.633H54.767a.633.633,0,0,0,.633-.633v-1.9a4.44,4.44,0,0,0-3.8-4.388ZM47.167,39.8a2.533,2.533,0,0,1,5.067,0v.633h-.108a.633.633,0,0,1-.448-.186l-.9-.9a.633.633,0,0,0-.9,0l-.525.525a1.913,1.913,0,0,1-1.343.556h-.851Zm.851,1.9a3.145,3.145,0,0,0,2.239-.927l.077-.077.448.448a1.875,1.875,0,0,0,.819.474v.716a1.9,1.9,0,1,1-3.8,0V41.7ZM49.7,45.5a3.167,3.167,0,0,0,.633-.063v.435l-.633.633-.633-.633v-.435a3.167,3.167,0,0,0,.633.063Zm-4.433,4.433A3.161,3.161,0,0,1,48.2,46.791l.871.871V51.2h-3.8ZM54.133,51.2h-3.8V47.662l.871-.871a3.161,3.161,0,0,1,2.929,3.143Z" transform="translate(-15.4 -12.357)" fill="#fff"/>
    <path id="Path_30" data-name="Path 30" d="M9.6,45.545v-.7a3.152,3.152,0,0,0,1.267-2.515V41.7a.633.633,0,0,0,.633-.633V39.8a3.8,3.8,0,0,0-7.6,0v1.267a.633.633,0,0,0,.633.633v.633A3.152,3.152,0,0,0,5.8,44.85v.7A4.44,4.44,0,0,0,2,49.933v1.9a.633.633,0,0,0,.633.633H12.767a.633.633,0,0,0,.633-.633v-1.9a4.44,4.44,0,0,0-3.8-4.388ZM5.167,39.8a2.533,2.533,0,0,1,5.067,0v.633h-.108a.633.633,0,0,1-.448-.186l-.9-.9a.633.633,0,0,0-.9,0l-.525.525a1.913,1.913,0,0,1-1.343.556H5.167Zm.851,1.9a3.145,3.145,0,0,0,2.239-.927l.077-.077.448.448a1.875,1.875,0,0,0,.819.474v.716a1.9,1.9,0,1,1-3.8,0V41.7ZM7.7,45.5a3.167,3.167,0,0,0,.633-.063v.435l-.633.633-.633-.633v-.435A3.167,3.167,0,0,0,7.7,45.5ZM3.267,49.933A3.161,3.161,0,0,1,6.2,46.791l.871.871V51.2h-3.8ZM12.133,51.2h-3.8V47.662l.871-.871a3.161,3.161,0,0,1,2.929,3.143Z" transform="translate(0 -12.357)" fill="#fff"/>
    <path id="Path_31" data-name="Path 31" d="M34.931,7.493a1.251,1.251,0,0,0-1.226-.95H30.216l-1.1-3.373a1.267,1.267,0,0,0-2.407,0l-1.1,3.373H22.126a1.267,1.267,0,0,0-.615,2.374l3.076,1.71-1.339,3.346a1.265,1.265,0,0,0,2.011,1.421l2.656-2.341,2.653,2.34a1.267,1.267,0,0,0,2.014-1.421l-1.338-3.346,3.075-1.71a1.251,1.251,0,0,0,.611-1.422Zm-4.3,2.027a1.27,1.27,0,0,0-.561,1.578l1.339,3.346L28.753,12.1a1.267,1.267,0,0,0-1.676,0l-2.653,2.34L25.762,11.1A1.27,1.27,0,0,0,25.2,9.518L22.126,7.809h3.488a1.267,1.267,0,0,0,1.2-.875l1.1-3.381v.008l1.1,3.373a1.267,1.267,0,0,0,1.205.875H33.7Z" transform="translate(-6.915)" fill="#fff"/>
    <path id="Path_32" data-name="Path 32" d="M45.356,19.2a1.259,1.259,0,0,0,.507,1.421L47.484,21.7l-.653,1.524A1.267,1.267,0,0,0,48.809,24.7l1.368-1.14,1.368,1.14a1.267,1.267,0,0,0,1.975-1.472L52.866,21.7l1.621-1.081a1.267,1.267,0,0,0-.7-2.32H52.023l-.638-2.046a1.267,1.267,0,0,0-2.418,0L48.33,18.3H46.567A1.259,1.259,0,0,0,45.356,19.2Zm4.18-.523.633-2.055,0,.008h0l.637,2.046a1.26,1.26,0,0,0,1.213.891h1.763l-1.621,1.081A1.267,1.267,0,0,0,51.7,22.2l.653,1.524-1.367-1.14a1.267,1.267,0,0,0-1.622,0L48,23.725l.654-1.524a1.267,1.267,0,0,0-.462-1.552l-1.625-1.081h1.761a1.261,1.261,0,0,0,1.212-.887Z" transform="translate(-15.877 -4.791)" fill="#fff"/>
    <path id="Path_33" data-name="Path 33" d="M3.865,20.621,5.487,21.7l-.653,1.524A1.266,1.266,0,0,0,6.808,24.7l1.368-1.14L9.544,24.7a1.267,1.267,0,0,0,1.975-1.472L10.866,21.7l1.621-1.081a1.267,1.267,0,0,0-.7-2.32H10.023l-.637-2.046a1.267,1.267,0,0,0-2.419,0L6.33,18.3H4.566a1.267,1.267,0,0,0-.7,2.321ZM6.33,19.567a1.261,1.261,0,0,0,1.21-.887l.637-2.049.637,2.046a1.26,1.26,0,0,0,1.21.89h1.763l-1.621,1.081A1.267,1.267,0,0,0,9.7,22.2l.653,1.524L8.99,22.585a1.267,1.267,0,0,0-1.622,0L6,23.725,6.653,22.2a1.267,1.267,0,0,0-.462-1.552L4.566,19.567Z" transform="translate(-0.476 -4.791)" fill="#fff"/>
    <path id="Path_34" data-name="Path 34" d="M10.015,30.953q-.015.33-.015.663c0,.443.021.89.063,1.327l1.261-.12c-.039-.4-.058-.8-.058-1.207,0-.2,0-.4.014-.6Z" transform="translate(-2.933 -10.507)" fill="#fff"/>
    <path id="Path_35" data-name="Path 35" d="M53.17,32.948c.042-.437.063-.883.063-1.327q0-.333-.015-.663l-1.267.06c.01.2.014.4.014.6,0,.4-.019.809-.057,1.206Z" transform="translate(-18.3 -10.508)" fill="#fff"/>
    <rect id="Rectangle_3" data-name="Rectangle 3" width="1.267" height="1.267" transform="translate(12.489 10.059) rotate(-34.99)" fill="#fff"/>
    <rect id="Rectangle_4" data-name="Rectangle 4" width="1.267" height="1.267" transform="translate(10.7 11.705) rotate(-45)" fill="#fff"/>
    <rect id="Rectangle_5" data-name="Rectangle 5" width="1.267" height="1.267" transform="translate(29.509 11.705) rotate(-45)" fill="#fff"/>
    <rect id="Rectangle_6" data-name="Rectangle 6" width="1.267" height="1.267" transform="matrix(0.573, -0.819, 0.819, 0.573, 27.747, 10.371)" fill="#fff"/>
  </g>
</svg>
