<svg xmlns="http://www.w3.org/2000/svg" width="38" height="48.048" viewBox="0 0 38 48.048">
  <g id="seal" transform="translate(-24.441 -13.963)">
    <path id="Path_44" data-name="Path 44" d="M62.33,60.752,52.146,43.02a15.6,15.6,0,1,0-16.966-.768l-10.628,18.5a.841.841,0,0,0,1.173,1.132l5.222-3.251,1.575,2.935a.841.841,0,0,0,.729.443.853.853,0,0,0,.741-.422l9.44-16.436h.018L52.89,61.587a.841.841,0,0,0,.729.423h.012a.841.841,0,0,0,.729-.443l1.575-2.935,5.222,3.251a.841.841,0,0,0,1.173-1.132ZM30.335,29.578A13.916,13.916,0,1,1,44.251,43.492,13.916,13.916,0,0,1,30.335,29.578Zm2.953,29.862-1.283-2.391a.841.841,0,0,0-1.185-.316L27.675,58.69,36.6,43.158a15.468,15.468,0,0,0,5.017,1.788Zm22.773-2.707a.841.841,0,0,0-1.185.316l-1.283,2.391-8.219-14.31a15.483,15.483,0,0,0,5.277-1.335l8.555,14.9Z" fill="#fff"/>
    <path id="Path_45" data-name="Path 45" d="M64.706,33.562A11.932,11.932,0,1,0,52.774,45.493,11.932,11.932,0,0,0,64.706,33.562Zm-22.183,0A10.251,10.251,0,1,1,52.774,43.812,10.251,10.251,0,0,1,42.524,33.562Z" transform="translate(-8.524 -3.984)" fill="#fff"/>
    <path id="Path_46" data-name="Path 46" d="M61.883,45.887A.84.84,0,0,0,63.1,45l-.561-3.273L64.92,39.41a.84.84,0,0,0-.466-1.433L61.167,37.5,59.7,34.521a.841.841,0,0,0-1.507,0L56.721,37.5l-3.287.477a.84.84,0,0,0-.466,1.433l2.378,2.318L54.785,45A.84.84,0,0,0,56,45.887l2.939-1.545Zm-5.154-2.28.348-2.03a.84.84,0,0,0-.24-.744L55.363,39.4l2.038-.3a.84.84,0,0,0,.633-.46l.913-1.847.913,1.847a.841.841,0,0,0,.633.46l2.038.3-1.475,1.438a.84.84,0,0,0-.24.744l.348,2.03-1.825-.961a.84.84,0,0,0-.782,0Z" transform="translate(-14.694 -10.441)" fill="#fff"/>
  </g>
</svg>
