<svg xmlns="http://www.w3.org/2000/svg" width="38.001" height="44.256" viewBox="0 0 38.001 44.256">
  <g id="washing-machine" transform="translate(-36.188)">
    <path id="Path_47" data-name="Path 47" d="M73.54,12.119a.648.648,0,0,0,.648-.648V4.225A4.23,4.23,0,0,0,69.963,0H40.413a4.23,4.23,0,0,0-4.225,4.225v35.8a4.23,4.23,0,0,0,4.225,4.226h29.55a4.23,4.23,0,0,0,4.225-4.226v-25.8a.648.648,0,0,0-1.3,0V33H67.127a.648.648,0,1,0,0,1.3h5.765V40H37.484V34.3H43.25a.648.648,0,0,0,0-1.3H37.484V9.482H40.7a.648.648,0,1,0,0-1.3H37.484V4.225A2.932,2.932,0,0,1,40.413,1.3h29.55a2.932,2.932,0,0,1,2.929,2.929v3.96H43.464a.648.648,0,1,0,0,1.3H72.892V11.47a.648.648,0,0,0,.648.648ZM69.963,42.959H40.413A2.933,2.933,0,0,1,37.773,41.3H72.6A2.933,2.933,0,0,1,69.963,42.959Z" fill="#fff"/>
    <path id="Path_48" data-name="Path 48" d="M234.4,32.264a2.207,2.207,0,1,0-2.207,2.207A2.209,2.209,0,0,0,234.4,32.264Zm-3.117,0a.91.91,0,1,1,.91.91A.911.911,0,0,1,231.283,32.264Z" transform="translate(-177.049 -27.459)" fill="#fff"/>
    <path id="Path_49" data-name="Path 49" d="M164.713,32.264a2.207,2.207,0,1,0-2.207,2.207A2.209,2.209,0,0,0,164.713,32.264Zm-3.117,0a.91.91,0,1,1,.91.91A.911.911,0,0,1,161.6,32.264Z" transform="translate(-113.384 -27.459)" fill="#fff"/>
    <path id="Path_50" data-name="Path 50" d="M95.024,32.264a2.207,2.207,0,1,0-2.207,2.207A2.209,2.209,0,0,0,95.024,32.264Zm-3.117,0a.91.91,0,1,1,.91.91A.911.911,0,0,1,91.906,32.264Z" transform="translate(-49.718 -27.459)" fill="#fff"/>
    <path id="Path_51" data-name="Path 51" d="M304.089,32.264a2.207,2.207,0,1,0-2.207,2.207A2.209,2.209,0,0,0,304.089,32.264Zm-3.117,0a.91.91,0,1,1,.91.91A.911.911,0,0,1,300.971,32.264Z" transform="translate(-240.714 -27.459)" fill="#fff"/>
    <path id="Path_52" data-name="Path 52" d="M373.777,32.264a2.207,2.207,0,1,0-2.207,2.207A2.209,2.209,0,0,0,373.777,32.264Zm-3.117,0a.91.91,0,1,1,.91.91A.911.911,0,0,1,370.659,32.264Z" transform="translate(-304.378 -27.459)" fill="#fff"/>
    <path id="Path_53" data-name="Path 53" d="M104.645,144.3a.648.648,0,0,0-.571.717,13.159,13.159,0,1,0-.01-2.9.648.648,0,0,0,1.289.137,11.867,11.867,0,1,1,.01,2.621A.649.649,0,0,0,104.645,144.3Z" transform="translate(-62.005 -119.09)" fill="#fff"/>
    <path id="Path_54" data-name="Path 54" d="M143.395,160.365a10.61,10.61,0,0,0-10.152,10.14,10.568,10.568,0,0,0,19.827,5.5,1.119,1.119,0,0,0-.644-1.606l-.808-.255a.407.407,0,0,1-.286-.39V168.1a.407.407,0,0,1,.286-.39l.808-.255a1.119,1.119,0,0,0,.643-1.608A10.532,10.532,0,0,0,143.395,160.365Zm8.432,15.206a9.264,9.264,0,0,1-14.7,1.778,9.19,9.19,0,0,1-2.513-5.213l4.01-1.655a7.108,7.108,0,0,1,5.281-.064l1.269.488a8.473,8.473,0,0,0,4.866.357v2.494a1.7,1.7,0,0,0,1.193,1.626h0Zm-.6-9.1a1.7,1.7,0,0,0-1.193,1.626v1.83a7.168,7.168,0,0,1-4.4-.233l-1.269-.488a8.4,8.4,0,0,0-6.241.076l-3.592,1.482c0-.07,0-.14.006-.21a9.307,9.307,0,0,1,8.906-8.895c.121,0,.24-.007.36-.007a9.238,9.238,0,0,1,8.022,4.628Z" transform="translate(-88.659 -146.498)" fill="#fff"/>
    <path id="Path_55" data-name="Path 55" d="M359.483,254.907v3.7a.648.648,0,1,0,1.3,0v-3.7a.648.648,0,0,0-1.3,0Z" transform="translate(-295.352 -232.283)" fill="#fff"/>
    <path id="Path_56" data-name="Path 56" d="M387.474,127.936v-1.718a1.187,1.187,0,0,0-1.186-1.186H383.34a1.187,1.187,0,0,0-1.186,1.186v1.718a1.187,1.187,0,0,0,1.186,1.186h2.948A1.187,1.187,0,0,0,387.474,127.936Zm-1.3-.111H383.45v-1.5h2.727Z" transform="translate(-316.064 -114.225)" fill="#fff"/>
  </g>
</svg>
