<svg id="Component_3_1" data-name="Component 3 – 1" xmlns="http://www.w3.org/2000/svg" width="453.02" height="409.299" viewBox="0 0 453.02 409.299">
  <path id="Untitled-1" d="M923,610.75,613.717,568.874c-46.27-12.66-90.227,32.089-90.227,80.049V826.21a72.71,72.71,0,0,0,72.71,72.71H751.07a172.522,172.522,0,0,0,31,37.39A176.56,176.56,0,0,0,855.82,976a112.32,112.32,0,0,1-34.24-50.39,103.005,103.005,0,0,1-4.84-26.71H903.8a72.71,72.71,0,0,0,72.71-72.71V680.89A72.721,72.721,0,0,0,923,610.749Z" transform="translate(-523.49 -566.701)" fill="#fec64d"/>
  <text id="H" transform="translate(158.047 247.289)" fill="#fff" font-size="194" font-family="Poppins-Medium, Poppins" font-weight="500" letter-spacing="0.04em"><tspan x="0" y="0">H</tspan></text>
</svg>
