<?xml version="1.0" standalone="no"?>
<!DOCTYPE svg PUBLIC "-//W3C//DTD SVG 20010904//EN"
 "http://www.w3.org/TR/2001/REC-SVG-20010904/DTD/svg10.dtd">
<svg version="1.0" xmlns="http://www.w3.org/2000/svg"
 width="659.000000pt" height="211.000000pt" viewBox="0 0 659.000000 211.000000"
 preserveAspectRatio="xMidYMid meet">
<metadata>
Created by potrace 1.16, written by Peter Selinger 2001-2019
</metadata>
<g transform="translate(0.000000,211.000000) scale(0.100000,-0.100000)"
fill="#000000" stroke="none">
<path d="M1907 1603 c-4 -3 -7 -215 -7 -470 0 -405 2 -463 15 -463 13 0 15 59
15 470 0 259 -4 470 -8 470 -5 0 -12 -3 -15 -7z"/>
<path d="M2500 1260 l0 -120 35 0 35 0 0 120 0 120 -35 0 -35 0 0 -120z"/>
<path d="M3710 1261 l0 -121 35 0 35 0 0 60 c0 57 1 60 25 60 24 0 25 -3 25
-60 l0 -60 35 0 35 0 0 70 c0 43 -4 70 -11 70 -5 0 -8 4 -5 8 3 5 -6 15 -20
22 -19 11 -32 11 -54 3 -28 -11 -29 -10 -32 26 -3 33 -6 36 -35 39 l-33 3 0
-120z"/>
<path d="M2032 1259 l3 -114 33 -3 c30 -3 32 -1 32 27 0 29 3 31 35 31 91 0
135 74 81 137 -22 25 -31 28 -105 31 l-82 4 3 -113z"/>
<path d="M3060 1340 c0 -28 3 -30 35 -30 l35 0 0 -85 0 -85 35 0 35 0 0 85 0
85 35 0 c32 0 35 2 35 30 l0 30 -105 0 -105 0 0 -30z"/>
<path d="M4119 1358 c-1 -7 -1 -16 0 -20 0 -5 -3 -8 -9 -8 -5 0 -10 -6 -10
-13 0 -7 -16 -45 -35 -84 -19 -39 -35 -76 -35 -82 0 -20 59 -12 70 9 8 16 21
20 60 20 40 0 50 -4 55 -20 5 -15 15 -20 41 -20 19 0 34 3 33 8 0 4 -22 54
-48 112 -46 104 -47 105 -84 108 -25 2 -37 -1 -38 -10z"/>
<path d="M2632 1310 c-18 -8 -21 -13 -13 -27 7 -13 20 -17 49 -15 28 3 41 -1
45 -12 5 -13 -1 -16 -31 -16 -69 0 -104 -47 -64 -83 22 -20 73 -22 90 -5 9 9
12 9 12 0 0 -7 13 -12 30 -12 l30 0 0 68 c0 56 -4 72 -20 87 -23 20 -95 29
-128 15z"/>
<path d="M2820 1230 l0 -90 35 0 35 0 0 49 c0 28 5 53 10 56 6 4 8 10 5 14 -2
5 7 6 20 3 22 -4 25 -1 25 28 0 33 1 33 -47 13 -7 -3 -13 0 -13 6 0 6 -16 11
-35 11 l-35 0 0 -90z"/>
<path d="M3317 1303 c-49 -26 -61 -86 -24 -128 25 -30 102 -44 138 -25 30 17
6 40 -42 40 -21 0 -41 5 -44 10 -7 11 17 14 83 10 37 -2 42 1 42 20 0 12 -4
19 -9 16 -5 -4 -7 2 -5 11 5 23 -4 35 -39 51 -35 15 -64 14 -100 -5z"/>
<path d="M3537 1304 c-53 -29 -61 -91 -18 -135 23 -22 39 -29 70 -29 22 0 46
7 54 15 8 8 17 12 20 9 2 -3 8 3 11 13 4 9 4 14 0 11 -3 -4 -13 -1 -21 7 -17
17 -33 19 -33 5 0 -17 -36 -11 -54 9 -9 10 -14 25 -10 34 8 21 42 31 58 18 19
-16 68 3 60 23 -6 16 -56 36 -88 36 -12 -1 -34 -8 -49 -16z"/>
<path d="M4311 1200 l0 -120 34 0 c33 0 35 2 35 35 0 34 1 35 35 29 48 -7 73
2 90 36 17 32 20 74 6 65 -6 -3 -8 3 -6 14 2 13 -5 28 -21 40 -22 17 -36 19
-87 12 -5 0 -5 -7 -2 -13 4 -7 0 -5 -8 5 -8 9 -28 17 -45 17 l-31 0 0 -120z"/>
<path d="M4552 1200 l1 -120 33 0 c32 0 34 2 34 34 0 34 0 34 39 29 55 -8 92
28 89 86 -2 66 -64 111 -112 81 -14 -9 -21 -10 -24 -1 -2 6 -17 11 -32 11
l-29 0 1 -120z"/>
<path d="M5028 1310 c-9 -6 -14 -18 -11 -28 3 -14 14 -18 45 -18 24 1 43 -4
45 -11 3 -9 -7 -13 -32 -13 -52 0 -75 -15 -75 -50 0 -44 66 -69 99 -37 11 10
14 10 18 0 3 -7 18 -13 34 -13 28 0 29 1 29 55 0 62 -17 108 -37 101 -8 -3
-12 -2 -9 3 13 20 -74 29 -106 11z"/>
<path d="M5220 1230 l0 -90 35 0 34 0 3 58 c3 53 5 57 28 57 23 0 25 -4 28
-57 3 -57 4 -58 32 -58 l30 0 0 70 c0 57 -4 74 -20 90 -23 23 -51 25 -83 9
-16 -9 -22 -9 -25 0 -2 6 -17 11 -33 11 l-29 0 0 -90z"/>
<path d="M5498 1305 c-56 -31 -64 -91 -19 -136 37 -37 94 -40 136 -7 l27 21
-27 15 c-21 11 -29 11 -35 2 -11 -18 -54 -8 -58 14 -2 10 2 29 9 42 12 23 14
23 36 9 13 -9 29 -12 36 -8 7 4 15 8 19 8 17 0 16 13 -1 29 -27 24 -90 30
-123 11z"/>
<path d="M5693 1296 c-29 -24 -47 -68 -34 -82 3 -3 7 -10 7 -15 1 -5 2 -13 3
-19 3 -29 120 -52 147 -29 22 18 -2 39 -47 39 -22 0 -39 5 -39 10 0 6 27 10
60 10 57 0 60 1 60 24 0 39 -39 76 -86 83 -33 4 -45 1 -71 -21z"/>
</g>
</svg>
